# xmcd
# 
# Track frame offsets:
#     150
#     30765
#     72885
#     107710
#     139757
#     192920
#     234810
#     274575
#     303515
#     336150
# 
# Disc length: 4549
# 
# Revision: 1
# Processed by: cddbd v1.5.2PL0 Copyright (c) Steve Scherf et al.
# Submitted via: fre:ac v1.0.27
# 
DISCID=7f11c30a
DTITLE=Bob Marley and The Wailers - Live At The Rainbow Theatre
DYEAR=1977
DGENRE=Reggae
TTITLE0=The Heathen [Live]
TTITLE1=Crazy Baldhead - Running Away [Live]
TTITLE2=War - No More Trouble [Live]
TTITLE3=Jamming [Live]
TTITLE4=Exodus [Live]
TTITLE5=Punky Reggae Party
TTITLE6=Punky Reggae Party [Dub]
TTITLE7=Keep On Moving
TTITLE8=Keep On Moving [Dub]
TTITLE9=Exodus Advertisement
EXTD=
EXTT0=
EXTT1=
EXTT2=
EXTT3=
EXTT4=
EXTT5=
EXTT6=
EXTT7=
EXTT8=
EXTT9=
PLAYORDER=
